PathFileType	4	(X/Y/Z)	./resultDataOpenSim/trcMotMarkerGrf/sub06/qtm-01-03.trc
DataRate	CameraRate	NumFrames	NumMarkers	Units	OrigDataRate	OrigDataStartFrame	OrigNumFrames
250.000000	250.000000	14	24	m	250.000000	193	512
Frame#	Time	L.Toe.Tip			R.Toe.Tip			L.Ankle.Lat			R.Ankle.Lat			L.Ankle.Med			R.Ankle.Med			L.Heel			R.Heel			L.Knee.Lat			R.Knee.Lat			L.Knee.Med			R.Knee.Med			L.Thigh.Upper			R.Thigh.Upper			L.ASIS			R.ASIS			V.Sacral			L.Acromium			R.Acromium			C7			L.Elbow			R.Elbow			L.Wrist.Lat			R.Wrist.Lat
		X1	Y1	Z1	X2	Y2	Z2	X3	Y3	Z3	X4	Y4	Z4	X5	Y5	Z5	X6	Y6	Z6	X7	Y7	Z7	X8	Y8	Z8	X9	Y9	Z9	X10	Y10	Z10	X11	Y11	Z11	X12	Y12	Z12	X13	Y13	Z13	X14	Y14	Z14	X15	Y15	Z15	X16	Y16	Z16	X17	Y17	Z17	X18	Y18	Z18	X19	Y19	Z19	X20	Y20	Z20	X21	Y21	Z21	X22	Y22	Z22	X23	Y23	Z23	X24	Y24	Z24

193	0.768	0.066436747	0.035428659	-0.025431897	-0.5065729	0.083809815	0.10476255	-0.055081407	0.067117235	-0.054532839	-0.52464209	0.22255831	0.13527047	-0.062004437	0.079856768	0.03260143	-0.48168194	0.21252428	0.055738467	-0.13367403	0.039530284	-0.016226055	-0.55104442	0.26422562	0.069612589	-0.0047871132	0.43724546	-0.074756155	-0.18812832	0.39123233	0.18868746	-0.042074322	0.43445688	0.042096666	-0.18120289	0.37378671	0.054499227	-0.14902767	0.80540731	-0.15674163	-0.22872339	0.75521837	0.17691869	-0.096877801	0.84415235	-0.097285587	-0.12937735	0.81872677	0.14443711	-0.2991234	0.90243983	0.01128988	-0.18800246	1.3074265	-0.17050139	-0.19768218	1.300359	0.19336073	-0.27167022	1.3439013	0.0083908255	-0.26740686	1.0025733	-0.21256681	-0.24240382	0.98112801	0.25688007	-0.17590983	0.77997357	-0.25195932	-0.055489582	0.81981518	0.2581712
194	0.772	0.06633938	0.035433596	-0.025585179	-0.49012036	0.084581745	0.1068549	-0.055327332	0.067066551	-0.054742258	-0.51065869	0.22301075	0.13599606	-0.061973061	0.080058423	0.032351025	-0.467603	0.21322835	0.056481691	-0.13373924	0.039547324	-0.016229022	-0.537563	0.26358241	0.069907612	-0.0031317956	0.43692751	-0.075113207	-0.17569501	0.39364941	0.18941269	-0.040393658	0.43458495	0.041779978	-0.16874499	0.37644486	0.055341734	-0.1443091	0.80633902	-0.15703301	-0.22410667	0.75698836	0.17658147	-0.091507766	0.84523694	-0.097730922	-0.1236377	0.82070041	0.14436559	-0.29394988	0.90429545	0.0099271335	-0.18192444	1.3093853	-0.17033293	-0.19223092	1.3020439	0.19357638	-0.26581908	1.3456335	0.0084574459	-0.25972929	1.0038496	-0.21316754	-0.23781299	0.9829885	0.25625396	-0.16566336	0.78214541	-0.25157186	-0.053568991	0.81913208	0.25873501
195	0.776	0.066258279	0.035436416	-0.025714053	-0.47363737	0.085182834	0.10900358	-0.055552078	0.067026016	-0.054925119	-0.4966184	0.22321491	0.1366869	-0.061968764	0.080233663	0.032133753	-0.45343088	0.21369804	0.057173122	-0.13379662	0.039572762	-0.01623307	-0.52408662	0.26278852	0.070206475	-0.0015762997	0.43664901	-0.075422729	-0.16335638	0.39626356	0.19006049	-0.038753096	0.43476795	0.041489093	-0.15633026	0.37906185	0.056021973	-0.13967084	0.80727114	-0.15728719	-0.21903507	0.75879608	0.17624378	-0.086267182	0.84634126	-0.098211871	-0.11789199	0.82269877	0.14428286	-0.28876843	0.90615123	0.0088010168	-0.17589868	1.3113921	-0.17014311	-0.18678601	1.3037615	0.1937971	-0.25996749	1.3473904	0.0085444757	-0.25204403	1.0051732	-0.21376944	-0.23332469	0.9849264	0.25569497	-0.15531772	0.78443066	-0.25113415	-0.05171771	0.81855401	0.25930343
196	0.78	0.066194021	0.035439471	-0.025819083	-0.45707287	0.085633815	0.11119316	-0.055721464	0.067005807	-0.055046575	-0.48251054	0.22320531	0.13733953	-0.06200759	0.080361936	0.032002406	-0.43916406	0.21394898	0.057833546	-0.13384942	0.039608065	-0.016238456	-0.51066154	0.26190521	0.070527741	-0.0001156425	0.43642468	-0.075686273	-0.15111394	0.39905409	0.19062302	-0.037103812	0.4350032	0.041244797	-0.14389869	0.3816317	0.056576967	-0.13504299	0.8082169	-0.15752702	-0.21346645	0.76066359	0.17594419	-0.081159921	0.84747803	-0.098732772	-0.11214347	0.82472162	0.14418575	-0.28352571	0.90799827	0.0079990731	-0.16991721	1.313438	-0.16993044	-0.18133435	1.3055025	0.19401627	-0.25411423	1.3491681	0.0086580831	-0.24434936	1.0065405	-0.21436928	-0.22898982	0.98694109	0.25519792	-0.14487531	0.78682312	-0.25065639	-0.049932477	0.81808893	0.25987497
197	0.784	0.066144367	0.035444615	-0.025904716	-0.44036419	0.085945601	0.11339644	-0.055837659	0.067007676	-0.05511495	-0.46830356	0.22299916	0.1379491	-0.062118477	0.080450669	0.031975557	-0.42477988	0.21397957	0.058478423	-0.13390156	0.039655549	-0.016248158	-0.49721873	0.26085263	0.070852522	0.0012580328	0.43626076	-0.075903955	-0.13897123	0.40199548	0.19109668	-0.035419231	0.43528768	0.041056257	-0.13138253	0.3841845	0.057050937	-0.13046255	0.8091659	-0.15779232	-0.20752372	0.76263728	0.17575092	-0.076130835	0.84865809	-0.099298688	-0.1063995	0.82676584	0.14405928	-0.27818698	0.90982679	0.0075100115	-0.16397176	1.3155107	-0.16969441	-0.17586456	1.3072604	0.19422953	-0.24825602	1.3509602	0.0087974053	-0.23665413	1.007947	-0.21497078	-0.22476737	0.98902648	0.25474023	-0.13436224	0.78930914	-0.25014888	-0.048217251	0.81773971	0.2604555
198	0.788	0.066104931	0.035452273	-0.025976292	-0.42347328	0.086122504	0.11558476	-0.055926245	0.067026428	-0.055163759	-0.45397062	0.22260487	0.13850698	-0.062331679	0.080525184	0.032049576	-0.41024494	0.21378992	0.05911071	-0.1339539	0.039712886	-0.016264441	-0.48371081	0.25954384	0.071186693	0.0025580181	0.43615225	-0.076075502	-0.12693273	0.40505931	0.19148536	-0.033715712	0.43560808	0.040916557	-0.11876835	0.38676818	0.057468487	-0.12605971	0.81009538	-0.15810024	-0.20147313	0.76475654	0.17571549	-0.071109163	0.84988896	-0.099906758	-0.10066879	0.82882269	0.1438748	-0.27275268	0.91162705	0.0072336622	-0.15805715	1.3176016	-0.16944103	-0.17037208	1.3090315	0.19443634	-0.24238967	1.3527587	0.0089585667	-0.22897644	1.0093882	-0.2155812	-0.22057435	0.99117064	0.25430128	-0.12380168	0.79187915	-0.24961642	-0.046576245	0.81750565	0.26105236
199	0.792	0.066071237	0.035461891	-0.026038261	-0.4063909	0.086175498	0.11773639	-0.056006048	0.067056115	-0.055216508	-0.4395149	0.22201038	0.13900131	-0.062616722	0.0806279	0.032167167	-0.39552773	0.21338164	0.059763924	-0.13400136	0.039770784	-0.016281964	-0.47014264	0.25794469	0.071573035	0.0037963589	0.43608525	-0.076202046	-0.11500337	0.40822012	0.19179726	-0.032037853	0.43594214	0.040815852	-0.10608574	0.38943094	0.057861602	-0.12188227	0.81100606	-0.15843225	-0.19552508	0.76699376	0.17579208	-0.066050778	0.85118281	-0.1005469	-0.094950161	0.83088416	0.14361722	-0.26726992	0.9133959	0.0070977225	-0.15217214	1.3197084	-0.16918158	-0.16485611	1.31081	0.19463386	-0.23651959	1.3545526	0.0091419009	-0.22132947	1.0108574	-0.21620249	-0.21640249	0.99335708	0.25388037	-0.11321318	0.79452684	-0.24906641	-0.045004781	0.81738282	0.26166577
200	0.796	0.066039865	0.035472617	-0.026094063	-0.38910706	0.086134608	0.11985308	-0.056080617	0.067091882	-0.055277853	-0.42496084	0.2211929	0.13942512	-0.062868415	0.080793783	0.032221579	-0.38063072	0.21276647	0.060496968	-0.13403595	0.039821594	-0.016286567	-0.45652123	0.25606485	0.072039148	0.0049729687	0.43604148	-0.076290693	-0.10318683	0.41146302	0.1920406	-0.030434432	0.43626485	0.040746959	-0.093393412	0.39221501	0.058250117	-0.11779523	0.81193155	-0.15876642	-0.18966973	0.76924699	0.17583774	-0.06094457	0.85255419	-0.10120733	-0.089218486	0.8329481	0.14330546	-0.26183265	0.91514278	0.0071486725	-0.14631721	1.3218287	-0.16892238	-0.15931255	1.3125852	0.19481539	-0.23065583	1.3563256	0.0093514912	-0.21370307	1.0123438	-0.21683226	-0.21228122	0.99556956	0.25348761	-0.10261362	0.79724283	-0.24850636	-0.043485127	0.81736056	0.26228588
201	0.8	0.066008966	0.035483288	-0.026145594	-0.37158949	0.086034324	0.12196023	-0.056147145	0.067130233	-0.055342414	-0.41033391	0.22014241	0.13979385	-0.06300885	0.081016397	0.032146838	-0.36561018	0.21197763	0.061270221	-0.13405597	0.039867945	-0.016269579	-0.44283416	0.25392001	0.072536966	0.0060765098	0.43600578	-0.076355212	-0.091481786	0.41477648	0.19222255	-0.028979453	0.43654238	0.040685574	-0.08079777	0.39513977	0.058573832	-0.11358066	0.81291316	-0.15909658	-0.18375735	0.77141481	0.17572639	-0.055815363	0.85400232	-0.1018763	-0.083436091	0.83501607	0.1429743	-0.25651893	0.9168758	0.0074428745	-0.14049243	1.3239522	-0.1686596	-0.15373326	1.3143448	0.19497625	-0.22480589	1.3580608	0.009588155	-0.2060664	1.0138365	-0.21746337	-0.20816679	0.99780278	0.25312609	-0.092013117	0.80001477	-0.24793642	-0.041993682	0.81742304	0.26290183
202	0.804	0.065977987	0.035492287	-0.026193647	-0.3538048	0.085876504	0.12406974	-0.056207729	0.067169681	-0.05540711	-0.39564101	0.21887015	0.14014958	-0.063070266	0.081253507	0.031982144	-0.35058263	0.21105586	0.061899285	-0.13407129	0.039916672	-0.016241222	-0.42908612	0.25148912	0.072984751	0.0071052033	0.43597052	-0.0764052	-0.079881486	0.41814385	0.19235151	-0.027768154	0.43673423	0.040592394	-0.068430943	0.39818242	0.058736425	-0.10910928	0.81396508	-0.15941413	-0.17766869	0.77345954	0.17543616	-0.050717228	0.85550508	-0.10254437	-0.077581496	0.83708903	0.14264406	-0.25128122	0.91858347	0.0078601158	-0.13469899	1.3260643	-0.16838906	-0.14811442	1.3160817	0.19511598	-0.21897088	1.3597525	0.0098423278	-0.19840658	1.0153255	-0.21806413	-0.20401043	1.0000526	0.25279829	-0.081409844	0.80283365	-0.24735018	-0.040507782	0.81755538	0.26351124
203	0.808	0.065946502	0.035498721	-0.026239289	-0.33574158	0.085632839	0.12616376	-0.056275066	0.067210157	-0.055479291	-0.38085373	0.21740099	0.14053911	-0.06313218	0.081463517	0.031815116	-0.33568997	0.21002429	0.062260849	-0.13409552	0.039970171	-0.016220281	-0.41531391	0.24872168	0.073358379	0.0080886157	0.43593585	-0.076433797	-0.068379532	0.42154937	0.19243554	-0.026825746	0.43682274	0.040450139	-0.056342509	0.4013165	0.058744416	-0.1044298	0.81505572	-0.15970555	-0.17136841	0.7754002	0.17503125	-0.045688459	0.857038	-0.10320214	-0.071660152	0.839167	0.14231536	-0.24598094	0.920245	0.0081612281	-0.12893487	1.3281538	-0.16811198	-0.14246017	1.3177962	0.19523759	-0.21314836	1.3614074	0.010098476	-0.19075615	1.0167944	-0.21858651	-0.19986734	1.002301	0.25251045	-0.070784315	0.80569872	-0.2467392	-0.038998675	0.81774498	0.26411701
204	0.812	0.06591373	0.035503698	-0.02628429	-0.31742469	0.085281675	0.12822078	-0.056365957	0.067251164	-0.05557116	-0.36592962	0.21575427	0.14098893	-0.063228675	0.081631451	0.031691952	-0.32093511	0.20887234	0.062483533	-0.13413479	0.04002861	-0.01621832	-0.40153864	0.24559546	0.073680973	0.0090729982	0.43590693	-0.076424719	-0.056977587	0.424982	0.1924778	-0.026025014	0.43684057	0.040278528	-0.044468023	0.40456455	0.058711838	-0.099704054	0.8161339	-0.15996854	-0.16486903	0.77727745	0.17460729	-0.040698993	0.85859479	-0.1038288	-0.065695494	0.84124924	0.14197756	-0.2405623	0.92185115	0.0082275096	-0.12318673	1.3302165	-0.16782915	-0.13677702	1.3194877	0.19534686	-0.2073376	1.3630298	0.010347937	-0.18313816	1.018221	-0.21906661	-0.19581071	1.0045296	0.25225742	-0.060108257	0.8086168	-0.24609271	-0.037439718	0.81798454	0.2647203
205	0.816	0.065880179	0.035510146	-0.026330684	-0.29892872	0.084810302	0.13022061	-0.056476935	0.06729312	-0.055676078	-0.35085429	0.21392786	0.14149717	-0.063347915	0.081766195	0.031607035	-0.30610715	0.20754699	0.062806788	-0.13418918	0.040092334	-0.016244756	-0.38773244	0.24214642	0.0739704	0.010087437	0.43588639	-0.076370138	-0.04568996	0.42843374	0.19248265	-0.025168599	0.43684165	0.040079914	-0.032769381	0.407961	0.058731576	-0.09508891	0.81716822	-0.16021066	-0.15819071	0.7791325	0.17426308	-0.035632188	0.86018719	-0.10438312	-0.059716289	0.8433312	0.14161804	-0.23509365	0.92340731	0.0081137178	-0.11743782	1.3322506	-0.16754157	-0.13106886	1.3211477	0.19544728	-0.20154141	1.3646146	0.010592268	-0.175499	1.0195919	-0.21967928	-0.19182932	1.0067347	0.25202195	-0.049376576	0.81159028	-0.24540087	-0.035847993	0.81827816	0.26532303
206	0.82	0.065849687	0.035521963	-0.026379448	-0.2803273	0.084208039	0.13214353	-0.056575135	0.067340149	-0.055759607	-0.33565077	0.21190195	0.14204202	-0.063467119	0.081883074	0.031544161	-0.29098284	0.20596395	0.06332743	-0.13426135	0.040157948	-0.016309807	-0.37383858	0.23843721	0.074249783	0.01113406	0.43586767	-0.076273549	-0.034535283	0.43190021	0.19246437	-0.024162132	0.43684563	0.039795862	-0.021283461	0.41149306	0.058798671	-0.090646355	0.81815357	-0.16043272	-0.15134134	0.78100346	0.174101	-0.030328947	0.86182729	-0.10481127	-0.053740905	0.84540488	0.14123674	-0.22965147	0.92491891	0.0079313174	-0.1116836	1.3342515	-0.16725425	-0.12533486	1.3227649	0.195538	-0.19576201	1.3661532	0.010836355	-0.16777524	1.0209239	-0.22055224	-0.187879	1.0089183	0.25179159	-0.038617681	0.81460597	-0.24466147	-0.034302522	0.818634	0.26593056
